**ABCDEFGHIJKLMNOPQRSTUVWXYZabcdefghijklmnopqrstuvwxyz**************************
**PARASOLID !"#$%&'()*+,-./:;<=>?@[\]^_`{|}~0123456789**************************
**PART1;
MC=Unknown;
MC_MODEL=unknown;
MC_ID=WIN-OB0HRVGBB6D;
OS=windows_64;
OS_RELEASE=Build 9200 Service Pack 0.0;
FRU=PRO/INTERFACE BY PTC, 2015110;
APPL=PRO/ENGINEER BY PTC, 2015110;
SITE=;
USER=SYSTEM;
FORMAT=text;
GUISE=transmit;
KEY=GEGZ88ES;
FILE=_cgs_temp_output.x_t;
DATE=10-01-2016;
**PART2;
SCH=SCH_1000149_10004;
USFLD_SIZE=0;
**PART3;
**END_OF_HEADER*****************************************************************
T51 : TRANSMIT FILE created by modeller version 100014917 SCH_1000149_100040 12
 1 305 5 7 0 0 0 0 1e3 1e-8 0 0 0 1 0 1 1 72 432 71 146 75 428 147 79 13 2 SDL/T
YSA_NAME80 1 3 0 2 8017 0 0 0 0 0 0 0 0 TTTTTTTTTTTTT3 84 8 4 GEGZ88ES81 1 5 1
 3 1 0 0 0 0 4 74 20 6 1 0 5 0 0 0 0 0 0 0 0 0 0 0 0 0 0 0 0 0 0 0 70 7 0 1 0 0
 4 1 20 4 6 6 1 T31 8 2 0 151 0 9 0 +-3.45139774421506e-2 0e0 0e0 1e0 0e0 0e0
 0e0 1e0 0e0 5.91739467634424e-2 31 9 3 0 155 8 10 0 +-3.57124e-2 0e0 0e0 1e0
 0e0 0e0 0e0 1e0 0e0 6.03723693212918e-2 31 10 4 0 167 9 11 0 +0e0 0e0 0e0 0e0
 0e0 1e0 -5.03825735829992e-1 8.63805318295371e-1 0e0 6.85038e-2 31 11 5 0 163
 10 12 0 +0e0 0e0 0e0 0e0 0e0 -1e0 -5.03825735829992e-1 -8.63805318295371e-1
 0e0 6.85038e-2 31 12 6 0 172 11 13 0 +-3.45139774421506e-2 0e0 0e0 1e0 0e0 0e0
 0e0 -1e0 0e0 5.91739467634424e-2 30 13 7 0 157 12 14 0 +-3.57124e-2
 -6.03723693212918e-2 0e0 7.07106781186543e-1 7.07106781186552e-1 0e0 31 14 8 0
 183 13 15 0 +-3.57124e-2 0e0 0e0 -1e0 0e0 0e0 0e0 1e0 0e0 6.03723693212918e-2
 30 15 9 0 153 14 16 0 +-3.57124e-2 6.03723693212918e-2 0e0 7.07106781186543e-1
 -7.07106781186552e-1 0e0 31 16 10 0 189 15 17 0 +-3.57124e-2 0e0 0e0 -1e0 0e0
 0e0 0e0 1e0 0e0 7.014845e-2 31 17 11 0 191 16 18 0 +-3.57124e-2 0e0 0e0 1e0
 0e0 0e0 0e0 1e0 0e0 7.014845e-2 31 18 12 0 199 17 19 0 +-3.124835e-2
 7.014845e-2 0e0 0e0 0e0 1e0 0e0 1e0 0e0 4.46405e-3 31 19 13 0 202 18 20 0 +
-3.124835e-2 -7.014845e-2 0e0 0e0 0e0 -1e0 0e0 -1e0 0e0 4.46405e-3 31 20 14 0
 204 19 21 0 +-3.124835e-2 0e0 0e0 -1e0 0e0 0e0 0e0 1e0 0e0 7.46125e-2 31 21 15
 0 210 20 22 0 +-3.124835e-2 0e0 0e0 1e0 0e0 0e0 0e0 1e0 0e0 7.46125e-2 31 22
 16 0 219 21 23 0 +-4.84397429833890e-3 0e0 0e0 1e0 0e0 0e0 0e0 1e0 0e0
 7.46125e-2 30 23 17 0 217 22 24 0 +-4.84397429833892e-3 7.46125e-2 0e0 -1e0
 0e0 0e0 30 24 18 0 221 23 25 0 +-4.84397429833892e-3 -7.46125e-2 0e0 -1e0 0e0
 0e0 31 25 19 0 230 24 26 0 +-4.84397429833890e-3 0e0 0e0 -1e0 0e0 0e0 0e0 1e0
 0e0 7.46125e-2 30 26 20 0 235 25 27 0 +-3.57124e-3 7.34933125e-2 0e0
 -7.50953031641163e-1 6.60355619548245e-1 0e0 30 27 21 0 238 26 28 0 +
-3.57124e-3 -7.34933125e-2 0e0 -7.50953031641163e-1 -6.60355619548245e-1 0e0 31
 28 22 0 240 27 29 0 +-3.57124e-3 0e0 0e0 -1e0 0e0 0e0 0e0 1e0 0e0
 7.34933125e-2 31 29 23 0 246 28 30 0 +-3.57124e-3 0e0 0e0 1e0 0e0 0e0 0e0 1e0
 0e0 7.34933125e-2 31 30 24 0 255 29 31 0 +3.57124e-3 0e0 0e0 1e0 0e0 0e0 0e0
 1e0 0e0 7.34933125e-2 30 31 25 0 253 30 32 0 +3.57124e-3 7.34933125e-2 0e0
 -1e0 0e0 0e0 30 32 26 0 257 31 33 0 +3.57124e-3 -7.34933125e-2 0e0 -1e0 0e0
 0e0 31 33 27 0 266 32 34 0 +3.57124e-3 0e0 0e0 -1e0 0e0 0e0 0e0 1e0 0e0
 7.34933125e-2 30 34 28 0 271 33 35 0 +4.84397429833891e-3 7.46125e-2 0e0
 -7.50953031641163e-1 -6.60355619548245e-1 0e0 30 35 29 0 274 34 36 0 +
4.84397429833891e-3 -7.46125e-2 0e0 -7.50953031641163e-1 6.60355619548245e-1
 0e0 31 36 30 0 276 35 37 0 +4.84397429833891e-3 0e0 0e0 -1e0 0e0 0e0 0e0 1e0
 0e0 7.46125e-2 31 37 31 0 282 36 38 0 +4.84397429833891e-3 0e0 0e0 1e0 0e0 0e0
 0e0 1e0 0e0 7.46125e-2 31 38 32 0 291 37 39 0 +3.124835e-2 0e0 0e0 1e0 0e0 0e0
 0e0 1e0 0e0 7.46125e-2 30 39 33 0 289 38 40 0 +3.124835e-2 7.46125e-2 0e0 -1e0
 0e0 0e0 30 40 34 0 293 39 41 0 +3.124835e-2 -7.46125e-2 0e0 -1e0 0e0 0e0 31 41
 35 0 302 40 42 0 +3.124835e-2 0e0 0e0 -1e0 0e0 0e0 0e0 1e0 0e0 7.46125e-2 31
 42 36 0 307 41 43 0 +3.124835e-2 7.014845e-2 0e0 0e0 0e0 1e0 1e0 0e0 0e0
 4.46405e-3 31 43 37 0 310 42 44 0 +3.124835e-2 -7.014845e-2 0e0 0e0 0e0 -1e0
 1e0 0e0 0e0 4.46405e-3 31 44 38 0 312 43 45 0 +3.57124e-2 0e0 0e0 -1e0 0e0 0e0
 0e0 1e0 0e0 7.014845e-2 31 45 39 0 318 44 46 0 +3.57124e-2 0e0 0e0 1e0 0e0 0e0
 0e0 1e0 0e0 7.014845e-2 31 46 40 0 328 45 47 0 +3.57124e-2 0e0 0e0 -1e0 0e0
 0e0 0e0 1e0 0e0 6.03723693212918e-2 31 47 41 0 330 46 48 0 +3.57124e-2 0e0 0e0
 1e0 0e0 0e0 0e0 1e0 0e0 6.03723693212918e-2 31 48 42 0 335 47 49 0 +
3.45139774421507e-2 0e0 0e0 1e0 0e0 0e0 0e0 -1e0 0e0 5.91739467634424e-2 30 49
 43 0 337 48 50 0 +3.45139774421507e-2 5.91739467634424e-2 0e0
 7.07106781186517e-1 7.07106781186578e-1 0e0 30 50 44 0 340 49 51 0 +
3.45139774421507e-2 -5.91739467634424e-2 0e0 7.07106781186517e-1
 -7.07106781186578e-1 0e0 31 51 45 0 346 50 52 0 +0e0 0e0 0e0 0e0 0e0 -1e0
 6.59992584352985e-1 -7.51272113550788e-1 0e0 6.85038e-2 31 52 46 0 348 51 53 0
 +4.5212e-2 0e0 0e0 -1e0 0e0 0e0 0e0 1e0 0e0 5.14649946122605e-2 31 53 47 0 350
 52 54 0 +0e0 0e0 0e0 0e0 0e0 1e0 6.59992584352985e-1 7.51272113550788e-1 0e0
 6.85038e-2 31 54 48 0 358 53 55 0 +4.5212e-2 0e0 0e0 1e0 0e0 0e0 0e0 1e0 0e0
 5.14649946122605e-2 31 55 49 0 355 54 56 0 +3.45139774421507e-2 0e0 0e0 1e0
 0e0 0e0 0e0 1e0 0e0 5.91739467634424e-2 31 56 50 0 374 55 57 0 +4.5212e-2 0e0
 0e0 -1e0 0e0 0e0 0e0 1e0 0e0 4.52413850706692e-2 31 57 51 0 376 56 58 0 +
4.5212e-2 0e0 0e0 1e0 0e0 0e0 0e0 1e0 0e0 4.52413850706692e-2 30 58 52 0 381 57
 59 0 +4.44206149293308e-2 4.445e-2 0e0 7.07106781186560e-1 7.07106781186535e-1
 0e0 30 59 53 0 384 58 60 0 +4.44206149293308e-2 -4.445e-2 0e0
 7.07106781186560e-1 -7.07106781186535e-1 0e0 31 60 54 0 386 59 61 0 +
4.44206149293308e-2 0e0 0e0 -1e0 0e0 0e0 0e0 1e0 0e0 4.445e-2 31 61 55 0 392 60
 62 0 +4.44206149293308e-2 0e0 0e0 1e0 0e0 0e0 0e0 1e0 0e0 4.445e-2 31 62 56 0
 401 61 63 0 +-4.44206149293308e-2 0e0 0e0 1e0 0e0 0e0 0e0 1e0 0e0 4.445e-2 30
 63 57 0 399 62 64 0 +-4.44206149293308e-2 4.445e-2 0e0 1e0 0e0 0e0 30 64 58 0
 403 63 65 0 +-4.44206149293308e-2 -4.445e-2 0e0 1e0 0e0 0e0 31 65 59 0 412 64
 66 0 +-4.44206149293308e-2 0e0 0e0 -1e0 0e0 0e0 0e0 1e0 0e0 4.445e-2 30 66 60
 0 417 65 67 0 +-4.5212e-2 4.52413850706692e-2 0e0 7.07106781186551e-1
 -7.07106781186544e-1 0e0 30 67 61 0 420 66 68 0 +-4.5212e-2
 -4.52413850706692e-2 0e0 7.07106781186551e-1 7.07106781186544e-1 0e0 31 68 62
 0 422 67 69 0 +-4.5212e-2 0e0 0e0 -1e0 0e0 0e0 0e0 1e0 0e0 4.52413850706692e-2
 31 69 63 0 428 68 70 0 +-4.5212e-2 0e0 0e0 1e0 0e0 0e0 0e0 1e0 0e0
 4.52413850706692e-2 31 70 64 0 175 69 71 0 +-4.5212e-2 0e0 0e0 -1e0 0e0 0e0
 0e0 1e0 0e0 5.14649946122605e-2 31 71 65 0 165 70 0 0 +-4.5212e-2 0e0 0e0 1e0
 0e0 0e0 0e0 1e0 0e0 5.14649946122605e-2 13 72 66 0 1 0 433 0 0 73 0 19 73 305
 0 1 0 75 72 S13 74 67 0 0 0 0 0 0 75 433 19 75 68 0 1 73 0 74 V29 76 69 0 77 0
 78 3.57124e-2 7.014845e-2 0e0 18 77 70 0 326 79 0 76 ?1 29 78 71 0 79 76 80
 3.124835e-2 7.46125e-2 0e0 18 79 72 0 317 81 77 78 ?1 29 80 73 0 81 78 82
 4.84397429833891e-3 7.46125e-2 0e0 18 81 74 0 300 83 79 80 ?1 29 82 75 0 83 80
 84 3.57124e-3 7.34933125e-2 0e0 18 83 76 0 281 85 81 82 ?1 29 84 77 0 85 82 86
 -3.57124e-3 7.34933125e-2 0e0 18 85 78 0 264 87 83 84 ?1 29 86 79 0 87 84 88
 -4.84397429833891e-3 7.46125e-2 0e0 18 87 80 0 245 89 85 86 ?1 29 88 81 0 89
 86 90 -3.124835e-2 7.46125e-2 0e0 18 89 82 0 228 91 87 88 ?1 29 90 83 0 91 88
 92 -3.57124e-2 7.014845e-2 0e0 18 91 84 0 209 93 89 90 ?1 29 92 85 0 93 90 94
 3.57124e-2 -7.014845e-2 0e0 18 93 86 0 325 95 91 92 ?1 29 94 87 0 95 92 96
 3.124835e-2 -7.46125e-2 0e0 18 95 88 0 321 97 93 94 ?1 29 96 89 0 97 94 98
 4.84397429833891e-3 -7.46125e-2 0e0 18 97 90 0 301 99 95 96 ?1 29 98 91 0 99
 96 100 3.57124e-3 -7.34933125e-2 0e0 18 99 92 0 285 101 97 98 ?1 29 100 93 0
 101 98 102 -3.57124e-3 -7.34933125e-2 0e0 18 101 94 0 265 103 99 100 ?1 29 102
 95 0 103 100 104 -4.84397429833891e-3 -7.46125e-2 0e0 18 103 96 0 249 105 101
 102 ?1 29 104 97 0 105 102 106 -3.124835e-2 -7.46125e-2 0e0 18 105 98 0 229
 107 103 104 ?1 29 106 99 0 107 104 108 -3.57124e-2 -7.014845e-2 0e0 18 107 100
 0 213 109 105 106 ?1 29 108 101 0 109 106 110 -3.57124e-2 6.03723693212918e-2
 0e0 18 109 102 0 195 111 107 108 ?1 29 110 103 0 111 108 112 -3.57124e-2
 -6.03723693212918e-2 0e0 18 111 104 0 194 113 109 110 ?1 29 112 105 0 113 110
 114 3.57124e-2 6.03723693212918e-2 0e0 18 113 106 0 367 115 111 112 ?1 29 114
 107 0 115 112 116 3.57124e-2 -6.03723693212918e-2 0e0 18 115 108 0 366 117 113
 114 ?1 29 116 109 0 117 114 118 -4.44206149293308e-2 4.445e-2 0e0 18 117 110 0
 427 119 115 116 ?1 29 118 111 0 119 116 120 4.44206149293308e-2 4.445e-2 0e0
 18 119 112 0 410 121 117 118 ?1 29 120 113 0 121 118 122 4.5212e-2
 4.52413850706692e-2 0e0 18 121 114 0 391 123 119 120 ?1 29 122 115 0 123 120
 124 -4.5212e-2 4.52413850706692e-2 0e0 18 123 116 0 439 125 121 122 ?1 29 124
 117 0 125 122 126 -4.44206149293308e-2 -4.445e-2 0e0 18 125 118 0 431 127 123
 124 ?1 29 126 119 0 127 124 128 4.44206149293308e-2 -4.445e-2 0e0 18 127 120 0
 411 129 125 126 ?1 29 128 121 0 129 126 130 4.5212e-2 -4.52413850706692e-2 0e0
 18 129 122 0 395 131 127 128 ?1 29 130 123 0 131 128 132 -4.5212e-2
 -4.52413850706692e-2 0e0 18 131 124 0 438 133 129 130 ?1 29 132 125 0 133 130
 134 4.5212e-2 5.14649946122605e-2 0e0 18 133 126 0 372 135 131 132 ?1 29 134
 127 0 135 132 136 4.5212e-2 -5.14649946122605e-2 0e0 18 135 128 0 371 137 133
 134 ?1 29 136 129 0 137 134 138 -4.5212e-2 5.14649946122605e-2 0e0 18 137 130
 0 436 139 135 136 ?1 29 138 131 0 139 136 140 -4.5212e-2 -5.14649946122605e-2
 0e0 18 139 132 0 435 141 137 138 ?1 29 140 133 0 141 138 142
 -3.45139774421506e-2 5.91739467634424e-2 0e0 18 141 134 0 181 143 139 140 ?1
 29 142 135 0 143 140 144 -3.45139774421506e-2 -5.91739467634424e-2 0e0 18 143
 136 0 182 145 141 142 ?1 29 144 137 0 145 142 146 3.45139774421507e-2
 5.91739467634424e-2 0e0 18 145 138 0 364 147 143 144 ?1 29 146 139 0 147 144 0
 3.45139774421507e-2 -5.91739467634424e-2 0e0 18 147 140 0 365 0 145 146 ?1 52
 148 141 0 149 0 159 0 +-3.43191617735335e-2 0e0 0e0 -1e0 0e0 0e0
 5.89791310948253e-2 7.07106781186551e-1 7.07106781186544e-1 0e0 1e0 0e0 14 149
 142 0 ?0 160 150 72 148 -0 0 0 160 74 15 150 143 0 158 149 0 16 151 144 0 ?152
 153 0 8 0 0 1 17 152 150 158 154 143 162 151 0 0 +16 153 145 0 ?154 155 151 15
 0 0 1 17 154 150 152 156 141 185 153 0 0 +16 155 146 0 ?194 157 153 9 0 0 1 17
 156 150 154 158 109 194 155 0 0 -16 157 147 0 ?182 163 155 13 0 0 1 17 158 150
 156 152 111 182 157 0 0 -53 159 148 0 160 148 169 0 +0e0 0e0 0e0 6.85038e-2
 1e0 0e0 0e0 0e0 -1e0 0e0 14 160 149 0 ?149 170 161 72 159 +0 0 149 170 74 15
 161 150 0 168 160 0 17 162 161 168 164 141 152 151 0 154 -16 163 151 0 ?177
 165 157 11 0 0 1 17 164 161 162 166 143 177 163 0 152 -16 165 152 0 ?166 167
 163 71 0 0 1 17 166 161 164 168 139 436 165 0 0 +16 167 153 0 ?168 172 165 10
 0 0 1 17 168 161 166 162 137 174 167 0 0 +53 169 154 0 170 159 178 0 +0e0 0e0
 0e0 6.85038e-2 1e0 0e0 0e0 0e0 -1e0 0e0 14 170 155 0 ?160 179 171 72 169 +0 0
 160 179 74 15 171 156 0 177 170 0 16 172 157 0 ?181 175 167 12 0 0 1 17 173
 171 177 174 143 181 172 0 164 -17 174 171 173 176 141 168 167 0 162 -16 175
 158 0 ?435 183 172 70 0 0 1 17 176 171 174 177 137 435 175 0 168 -17 177 171
 176 173 139 164 163 0 166 +52 178 159 0 179 169 186 0 +-3.43191617735335e-2
 0e0 0e0 -1e0 0e0 0e0 5.89791310948253e-2 7.07106781186551e-1
 7.07106781186544e-1 0e0 1e0 0e0 14 179 160 0 ?170 187 180 72 178 -0 0 170 187
 74 15 180 161 0 185 179 0 17 181 180 185 182 141 173 172 0 174 +17 182 180 181
 184 143 158 157 0 173 +16 183 162 0 ?184 189 175 14 0 0 1 17 184 180 182 185
 111 195 183 0 158 +17 185 180 184 181 109 154 153 0 156 -50 186 163 0 187 178
 196 0 +-3.57124e-2 0e0 0e0 1e0 0e0 0e0 0e0 -1e0 0e0 14 187 164 0 ?179 197 193
 72 186 -0 0 179 197 74 15 188 165 0 192 187 0 16 189 166 0 ?190 191 183 16 0 0
 1 17 190 188 192 192 107 201 189 0 0 +16 191 167 0 ?213 199 189 17 0 0 1 17
 192 188 190 190 91 213 191 0 0 -15 193 168 0 195 187 188 17 194 193 195 195
 111 156 155 0 184 +17 195 193 194 194 109 184 183 0 185 -54 196 169 0 197 186
 206 0 +-3.124835e-2 0e0 0e0 1e0 0e0 0e0 7.014845e-2 4.46405e-3 0e0 -1e0 0e0 14
 197 170 0 ?187 207 198 72 196 +0 0 187 207 74 15 198 171 0 205 197 0 16 199
 172 0 ?209 202 191 18 0 0 1 17 200 198 205 201 89 209 199 0 0 -17 201 198 200
 203 91 190 189 0 192 -16 202 173 0 ?203 204 199 19 0 0 1 17 203 198 201 205
 107 212 202 0 190 +16 204 174 0 ?205 210 202 20 0 0 1 17 205 198 203 200 105
 228 204 0 0 +54 206 175 0 207 196 214 0 +-3.124835e-2 0e0 0e0 1e0 0e0 0e0
 7.014845e-2 4.46405e-3 0e0 -1e0 0e0 14 207 176 0 ?197 215 208 72 206 +0 0 197
 215 74 15 208 177 0 213 207 0 17 209 208 213 211 91 200 199 0 201 +16 210 178
 0 ?223 217 204 21 0 0 1 17 211 208 209 212 89 223 210 0 200 -17 212 208 211
 213 105 203 202 0 205 -17 213 208 212 209 107 192 191 0 203 +51 214 179 0 215
 206 224 0 +-3.928364e-2 0e0 0e0 1e0 0e0 0e0 7.46125e-2 0e0 -1e0 0e0 14 215 180
 0 ?207 225 216 72 214 +0 0 207 225 74 15 216 181 0 223 215 0 16 217 182 0 ?218
 219 210 23 0 0 1 17 218 216 223 220 89 227 217 0 211 +16 219 183 0 ?249 221
 217 22 0 0 1 17 220 216 218 222 87 249 219 0 0 -16 221 184 0 ?229 230 219 24 0
 0 1 17 222 216 220 223 103 229 221 0 0 -17 223 216 222 218 105 211 210 0 212 +
51 224 185 0 225 214 232 0 +-3.928364e-2 0e0 0e0 1e0 0e0 0e0 7.46125e-2 0e0
 -1e0 0e0 14 225 186 0 ?215 233 226 72 224 +0 0 215 233 74 15 226 187 0 231 225
 0 17 227 226 231 228 87 218 217 0 220 -17 228 226 227 229 89 205 204 0 218 -17
 229 226 228 231 105 222 221 0 223 +16 230 188 0 ?231 235 221 25 0 0 1 17 231
 226 229 227 103 237 230 0 222 +52 232 189 0 233 224 242 0 +
-3.36434420879615e-3 0e0 0e0 -1e0 0e0 0e0 7.33113772888407e-2
 6.60355619548244e-1 7.50953031641164e-1 0e0 1e0 0e0 14 233 190 0 ?225 243 234
 72 232 +0 0 225 243 74 15 234 191 0 241 233 0 16 235 192 0 ?245 238 230 26 0 0
 1 17 236 234 241 237 85 245 235 0 0 -17 237 234 236 239 87 231 230 0 227 -16
 238 193 0 ?239 240 235 27 0 0 1 17 239 234 237 241 103 248 238 0 231 +16 240
 194 0 ?241 246 238 28 0 0 1 17 241 234 239 236 101 264 240 0 0 +52 242 195 0
 243 232 250 0 +-3.36434420879615e-3 0e0 0e0 -1e0 0e0 0e0 7.33113772888407e-2
 6.60355619548244e-1 7.50953031641164e-1 0e0 1e0 0e0 14 243 196 0 ?233 251 244
 72 242 +0 0 233 251 74 15 244 197 0 249 243 0 17 245 244 249 247 87 236 235 0
 237 +16 246 198 0 ?259 253 240 29 0 0 1 17 247 244 245 248 85 259 246 0 236 -
17 248 244 247 249 101 239 238 0 241 -17 249 244 248 245 103 220 219 0 239 +51
 250 199 0 251 242 260 0 +-3.928364e-2 0e0 0e0 1e0 0e0 0e0 7.34933125e-2 0e0
 -1e0 0e0 14 251 200 0 ?243 261 252 72 250 +0 0 243 261 74 15 252 201 0 259 251
 0 16 253 202 0 ?254 255 246 31 0 0 1 17 254 252 259 256 85 263 253 0 247 +16
 255 203 0 ?285 257 253 30 0 0 1 17 256 252 254 258 83 285 255 0 0 -16 257 204
 0 ?265 266 255 32 0 0 1 17 258 252 256 259 99 265 257 0 0 -17 259 252 258 254
 101 247 246 0 248 +51 260 205 0 261 250 268 0 +-3.928364e-2 0e0 0e0 1e0 0e0
 0e0 7.34933125e-2 0e0 -1e0 0e0 14 261 206 0 ?251 269 262 72 260 +0 0 251 269
 74 15 262 207 0 267 261 0 17 263 262 267 264 83 254 253 0 256 -17 264 262 263
 265 85 241 240 0 254 -17 265 262 264 267 101 258 257 0 259 +16 266 208 0 ?267
 271 257 33 0 0 1 17 267 262 265 263 99 273 266 0 258 +52 268 209 0 269 260 278
 0 +3.36434420879615e-3 0e0 0e0 1e0 0e0 0e0 7.33113772888407e-2
 6.60355619548244e-1 7.50953031641164e-1 0e0 -1e0 0e0 14 269 210 0 ?261 279 270
 72 268 +0 0 261 279 74 15 270 211 0 277 269 0 16 271 212 0 ?281 274 266 34 0 0
 1 17 272 270 277 273 81 281 271 0 0 -17 273 270 272 275 83 267 266 0 263 -16
 274 213 0 ?275 276 271 35 0 0 1 17 275 270 273 277 99 284 274 0 267 +16 276
 214 0 ?277 282 274 36 0 0 1 17 277 270 275 272 97 300 276 0 0 +52 278 215 0
 279 268 286 0 +3.36434420879615e-3 0e0 0e0 1e0 0e0 0e0 7.33113772888407e-2
 6.60355619548244e-1 7.50953031641164e-1 0e0 -1e0 0e0 14 279 216 0 ?269 287 280
 72 278 +0 0 269 287 74 15 280 217 0 285 279 0 17 281 280 285 283 83 272 271 0
 273 +16 282 218 0 ?295 289 276 37 0 0 1 17 283 280 281 284 81 295 282 0 272 -
17 284 280 283 285 97 275 274 0 277 -17 285 280 284 281 99 256 255 0 275 +51
 286 219 0 287 278 296 0 +-3.928364e-2 0e0 0e0 1e0 0e0 0e0 7.46125e-2 0e0 -1e0
 0e0 14 287 220 0 ?279 297 288 72 286 +0 0 279 297 74 15 288 221 0 295 287 0 16
 289 222 0 ?290 291 282 39 0 0 1 17 290 288 295 292 81 299 289 0 283 +16 291
 223 0 ?321 293 289 38 0 0 1 17 292 288 290 294 79 321 291 0 0 -16 293 224 0 ?
301 302 291 40 0 0 1 17 294 288 292 295 95 301 293 0 0 -17 295 288 294 290 97
 283 282 0 284 +51 296 225 0 297 286 304 0 +-3.928364e-2 0e0 0e0 1e0 0e0 0e0
 7.46125e-2 0e0 -1e0 0e0 14 297 226 0 ?287 305 298 72 296 +0 0 287 305 74 15
 298 227 0 303 297 0 17 299 298 303 300 79 290 289 0 292 -17 300 298 299 301 81
 277 276 0 290 -17 301 298 300 303 97 294 293 0 295 +16 302 228 0 ?303 307 293
 41 0 0 1 17 303 298 301 299 95 309 302 0 294 +54 304 229 0 305 296 314 0 +
3.124835e-2 0e0 0e0 1e0 0e0 0e0 7.014845e-2 4.46405e-3 0e0 -1e0 0e0 14 305 230
 0 ?297 315 306 72 304 +0 0 297 315 74 15 306 231 0 313 305 0 16 307 232 0 ?317
 310 302 42 0 0 1 17 308 306 313 309 77 317 307 0 0 -17 309 306 308 311 79 303
 302 0 299 -16 310 233 0 ?311 312 307 43 0 0 1 17 311 306 309 313 95 320 310 0
 303 +16 312 234 0 ?313 318 310 44 0 0 1 17 313 306 311 308 93 326 312 0 0 +54
 314 235 0 315 304 322 0 +3.124835e-2 0e0 0e0 1e0 0e0 0e0 7.014845e-2
 4.46405e-3 0e0 -1e0 0e0 14 315 236 0 ?305 323 316 72 314 +0 0 305 323 74 15
 316 237 0 321 315 0 17 317 316 321 319 79 308 307 0 309 +16 318 238 0 ?325 328
 312 45 0 0 1 17 319 316 317 320 77 325 318 0 308 -17 320 316 319 321 93 311
 310 0 313 -17 321 316 320 317 95 292 291 0 311 +50 322 239 0 323 314 332 0 +
3.57124e-2 0e0 0e0 1e0 0e0 0e0 0e0 -1e0 0e0 14 323 240 0 ?315 333 327 72 322 +0
 0 315 333 74 15 324 241 0 326 323 0 17 325 324 326 326 93 319 318 0 320 +17
 326 324 325 325 77 313 312 0 319 -15 327 242 0 331 323 324 16 328 243 0 ?329
 330 318 46 0 0 1 17 329 327 331 331 115 339 328 0 0 +16 330 244 0 ?366 335 328
 47 0 0 1 17 331 327 329 329 113 366 330 0 0 -52 332 245 0 333 322 342 0 +
3.43191617735336e-2 0e0 0e0 1e0 0e0 0e0 5.89791310948253e-2 7.07106781186578e-1
 7.07106781186518e-1 0e0 -1e0 0e0 14 333 246 0 ?323 343 334 72 332 -0 0 323 343
 74 15 334 247 0 341 333 0 16 335 248 0 ?345 337 330 48 0 0 1 17 336 334 341
 338 147 345 335 0 0 -16 337 249 0 ?367 340 335 49 0 0 1 17 338 334 336 339 145
 367 337 0 0 -17 339 334 338 341 113 329 328 0 331 -16 340 250 0 ?341 346 337
 50 0 0 1 17 341 334 339 336 115 365 340 0 329 +53 342 251 0 343 332 352 0 +0e0
 0e0 0e0 6.85038e-2 1e0 0e0 0e0 0e0 -1e0 0e0 14 343 252 0 ?333 353 344 72 342 +
0 0 333 353 74 15 344 253 0 351 343 0 17 345 344 351 347 145 336 335 0 338 +16
 346 254 0 ?347 348 340 51 0 0 1 17 347 344 345 349 147 360 346 0 336 +16 348
 255 0 ?349 350 346 52 0 0 1 17 349 344 347 351 135 372 348 0 0 +16 350 256 0 ?
357 355 348 53 0 0 1 17 351 344 349 345 133 357 350 0 0 -53 352 257 0 353 342
 361 0 +0e0 0e0 0e0 6.85038e-2 1e0 0e0 0e0 0e0 -1e0 0e0 14 353 258 0 ?343 362
 354 72 352 +0 0 343 362 74 15 354 259 0 360 353 0 16 355 260 0 ?356 358 350 55
 0 0 1 17 356 354 360 357 147 364 355 0 347 +17 357 354 356 359 145 351 350 0
 345 +16 358 261 0 ?371 374 355 54 0 0 1 17 359 354 357 360 133 371 358 0 351 -
17 360 354 359 356 135 347 346 0 349 -52 361 262 0 362 352 368 0 +
3.43191617735336e-2 0e0 0e0 1e0 0e0 0e0 5.89791310948253e-2 7.07106781186578e-1
 7.07106781186518e-1 0e0 -1e0 0e0 14 362 263 0 ?353 369 363 72 361 -0 0 353 369
 74 15 363 264 0 367 362 0 17 364 363 367 365 145 356 355 0 357 -17 365 363 364
 366 147 341 340 0 356 -17 366 363 365 367 115 331 330 0 341 +17 367 363 366
 364 113 338 337 0 339 +50 368 265 0 369 361 378 0 +4.5212e-2 0e0 0e0 1e0 0e0
 0e0 0e0 -1e0 0e0 14 369 266 0 ?362 379 373 72 368 +0 0 362 379 74 15 370 267 0
 372 369 0 17 371 370 372 372 135 359 358 0 360 +17 372 370 371 371 133 349 348
 0 359 -15 373 268 0 377 369 370 16 374 269 0 ?375 376 358 56 0 0 1 17 375 373
 377 377 129 383 374 0 0 +16 376 270 0 ?395 381 374 57 0 0 1 17 377 373 375 375
 121 395 376 0 0 -52 378 271 0 379 368 388 0 +4.42257992607137e-2 0e0 0e0 1e0
 0e0 0e0 4.42551843313829e-2 7.07106781186535e-1 7.07106781186560e-1 0e0 -1e0
 0e0 14 379 272 0 ?369 389 380 72 378 -0 0 369 389 74 15 380 273 0 387 379 0 16
 381 274 0 ?391 384 376 58 0 0 1 17 382 380 387 383 119 391 381 0 0 -17 383 380
 382 385 121 375 374 0 377 -16 384 275 0 ?385 386 381 59 0 0 1 17 385 380 383
 387 129 394 384 0 375 +16 386 276 0 ?387 392 384 60 0 0 1 17 387 380 385 382
 127 410 386 0 0 +52 388 277 0 389 378 396 0 +4.42257992607137e-2 0e0 0e0 1e0
 0e0 0e0 4.42551843313829e-2 7.07106781186535e-1 7.07106781186560e-1 0e0 -1e0
 0e0 14 389 278 0 ?379 397 390 72 388 -0 0 379 397 74 15 390 279 0 395 389 0 17
 391 390 395 393 121 382 381 0 383 +16 392 280 0 ?405 399 386 61 0 0 1 17 393
 390 391 394 119 405 392 0 382 -17 394 390 393 395 127 385 384 0 387 -17 395
 390 394 391 129 377 376 0 385 +51 396 281 0 397 388 406 0 +-4.97332e-2 0e0 0e0
 1e0 0e0 0e0 4.445e-2 0e0 -1e0 0e0 14 397 282 0 ?389 407 398 72 396 -0 0 389
 407 74 15 398 283 0 405 397 0 16 399 284 0 ?400 401 392 63 0 0 1 17 400 398
 405 402 119 409 399 0 393 +16 401 285 0 ?431 403 399 62 0 0 1 17 402 398 400
 404 117 431 401 0 0 -16 403 286 0 ?411 412 401 64 0 0 1 17 404 398 402 405 125
 411 403 0 0 -17 405 398 404 400 127 393 392 0 394 +51 406 287 0 407 396 414 0 +
-4.97332e-2 0e0 0e0 1e0 0e0 0e0 4.445e-2 0e0 -1e0 0e0 14 407 288 0 ?397 415 408
 72 406 -0 0 397 415 74 15 408 289 0 413 407 0 17 409 408 413 410 117 400 399 0
 402 -17 410 408 409 411 119 387 386 0 400 -17 411 408 410 413 127 404 403 0
 405 +16 412 290 0 ?413 417 403 65 0 0 1 17 413 408 411 409 125 419 412 0 404 +
52 414 291 0 415 406 424 0 +-4.42257992607137e-2 0e0 0e0 -1e0 0e0 0e0
 4.42551843313829e-2 7.07106781186545e-1 7.07106781186550e-1 0e0 1e0 0e0 14 415
 292 0 ?407 425 416 72 414 -0 0 407 425 74 15 416 293 0 423 415 0 16 417 294 0 ?
427 420 412 66 0 0 1 17 418 416 423 419 123 427 417 0 0 -17 419 416 418 421 117
 413 412 0 409 -16 420 295 0 ?421 422 417 67 0 0 1 17 421 416 419 423 125 430
 420 0 413 +16 422 296 0 ?423 428 420 68 0 0 1 17 423 416 421 418 131 439 422 0
 0 +52 424 297 0 425 414 432 0 +-4.42257992607137e-2 0e0 0e0 -1e0 0e0 0e0
 4.42551843313829e-2 7.07106781186545e-1 7.07106781186550e-1 0e0 1e0 0e0 14 425
 298 0 ?415 433 426 72 424 -0 0 415 433 74 15 426 299 0 431 425 0 17 427 426
 431 429 117 418 417 0 419 +16 428 300 0 ?438 0 422 69 0 0 1 17 429 426 427 430
 123 438 428 0 418 -17 430 426 429 431 131 421 420 0 423 -17 431 426 430 427
 125 402 401 0 421 +50 432 301 0 433 424 0 0 +-4.5212e-2 0e0 0e0 1e0 0e0 0e0
 0e0 -1e0 0e0 14 433 302 0 ?425 0 437 72 432 -0 0 425 0 74 15 434 303 0 436 433
 0 17 435 434 436 436 139 176 175 0 177 +17 436 434 435 435 137 166 165 0 176 -
15 437 304 0 439 433 434 17 438 437 439 439 131 429 428 0 430 +17 439 437 438
 438 123 423 422 0 429 -1 0 
